# xmcd CD database file
# Copyright (C) 1997 Ti Kan
# 
# Track frame offsets:
#     150
#     9950
#     24032
#     27182
#     44740
#     47080
#     74407
#     79142
#     97072
#     117370
#     120310
#     143260
#     147035
#     162022
#     185822
#     189627
#     208295
#     214717
#     239302
#     244815
#     268285
#     273640
#     294280
#     296115
#     315597
#     317562
# 
# Disc length: 4610 seconds
# 
# Revision: 1
# Processed by: cddbd v1.4b41PL1 Copyright (c) Steve Scherf et al.
# Submitted via: DiscPlay 4.0.4
# 
DISCID=8212001a
DTITLE=Luke - In the Nude
DYEAR=1900
DGENRE=
TTITLE0=Do YOu Hear the Lambs Calling
TTITLE1=Work It Out
TTITLE2=We're F--kin'
TTITLE3=Bad Land Boogie
TTITLE4=I Got a F--kin' Headache
TTITLE5=Tell Me What You Know
TTITLE6=Dre's Momma Needs a Haircut
TTITLE7=Cowards in Compton
TTITLE8=Head, Head, and More Head Pt II
TTITLE9=Weenie Roast
TTITLE10=Menege a Tois Pt II
TTITLE11=Pimple on My Dick
TTITLE12=The Hero
TTITLE13=Whatever
TTITLE14=Stop Looking at My D--k
TTITLE15=The Hop
TTITLE16=L.L.O.L.M.
TTITLE17=Freestyle Joint
TTITLE18=$100 Bet
TTITLE19=Bust a Nut
TTITLE20=Wear a Rubber
TTITLE21=Take It Off
TTITLE22=The Boy Got Some D--k
TTITLE23=Headbanger
TTITLE24=Good to the Last Drop
TTITLE25=Shout Outs
EXTD=
EXTT0=
EXTT1=
EXTT2=
EXTT3=
EXTT4=
EXTT5=
EXTT6=
EXTT7=
EXTT8=
EXTT9=
EXTT10=
EXTT11=
EXTT12=
EXTT13=
EXTT14=
EXTT15=
EXTT16=
EXTT17=
EXTT18=
EXTT19=
EXTT20=
EXTT21=
EXTT22=
EXTT23=
EXTT24=
EXTT25=
PLAYORDER=
